<svg version="1.1" id="Layer_1" xmlns="http://www.w3.org/2000/svg" xmlns:xlink="http://www.w3.org/1999/xlink" x="0px" y="0px"
	 width="100%" viewBox="0 0 192 192" enable-background="new 0 0 192 192" xml:space="preserve">
<path fill="#000000" opacity="1.000000" stroke="none" 
	d="
M116.000000,193.000000 
	C77.358192,193.000000 39.216389,193.000000 1.037290,193.000000 
	C1.037290,129.066559 1.037290,65.133102 1.037290,1.099821 
	C64.891624,1.099821 128.783463,1.099821 192.837646,1.099821 
	C192.837646,64.999664 192.837646,128.999802 192.837646,193.000000 
	C167.466721,193.000000 141.983368,193.000000 116.000000,193.000000 
M73.076141,185.495743 
	C80.972412,186.658844 88.940048,189.118149 96.748611,188.688217 
	C109.174934,188.004044 121.597191,186.561752 133.373199,181.183090 
	C147.276138,174.832993 159.455460,166.295334 168.680664,154.395203 
	C182.864639,136.098480 190.210602,115.175995 187.900406,91.698441 
	C187.059250,83.150070 186.265976,74.275391 183.359085,66.313263 
	C175.219086,44.017399 160.589554,26.840326 139.265610,15.826041 
	C130.116470,11.100312 120.548477,8.105211 110.164642,6.721884 
	C97.148003,4.987819 84.510963,5.406289 72.005020,8.998627 
	C45.980690,16.474129 26.752205,32.299953 14.834461,56.687553 
	C10.615518,65.320885 8.050326,74.341736 6.571592,84.049187 
	C4.848282,95.362221 5.469699,106.455513 7.549323,117.188293 
	C9.295713,126.201271 13.689118,134.958054 18.176382,143.133530 
	C30.081497,164.823792 48.657364,178.371231 73.076141,185.495743 
z"/>
<path fill="#D99E82" opacity="1.000000" stroke="none" 
	d="
M72.714615,185.283569 
	C48.657364,178.371231 30.081497,164.823792 18.176382,143.133530 
	C13.689118,134.958054 9.295713,126.201271 7.549323,117.188293 
	C5.469699,106.455513 4.848282,95.362221 6.571592,84.049187 
	C8.050326,74.341736 10.615518,65.320885 14.834461,56.687553 
	C26.752205,32.299953 45.980690,16.474129 72.005020,8.998627 
	C84.510963,5.406289 97.148003,4.987819 110.164642,6.721884 
	C120.548477,8.105211 130.116470,11.100312 139.265610,15.826041 
	C160.589554,26.840326 175.219086,44.017399 183.359085,66.313263 
	C186.265976,74.275391 187.059250,83.150070 187.900406,91.698441 
	C190.210602,115.175995 182.864639,136.098480 168.680664,154.395203 
	C159.455460,166.295334 147.276138,174.832993 133.373199,181.183090 
	C121.597191,186.561752 109.174934,188.004044 96.748611,188.688217 
	C88.940048,189.118149 80.972412,186.658844 72.714615,185.283569 
M106.599045,105.182304 
	C105.475792,109.171219 107.358887,112.281464 110.853928,112.921394 
	C116.604019,113.974213 122.695419,114.805534 128.405029,114.014046 
	C135.278870,113.061157 138.793411,105.638046 136.756516,98.991142 
	C134.855484,92.787689 127.955200,89.355995 121.466255,91.695755 
	C114.993721,94.029617 109.940269,98.178787 106.599045,105.182304 
M76.906754,79.582207 
	C79.271156,81.376534 81.458817,83.496307 84.037186,84.896675 
	C89.223915,87.713699 93.905624,85.948250 94.372780,80.221497 
	C94.827393,74.648636 94.052132,68.698845 92.456291,63.318085 
	C91.041374,58.547359 85.294945,56.354702 80.589630,57.267841 
	C75.980965,58.162224 71.857758,62.473053 71.313194,67.159233 
	C70.743820,72.058937 73.216431,75.732651 76.906754,79.582207 
M43.332329,96.665672 
	C38.513649,94.827530 33.419884,95.039230 30.779108,99.436737 
	C27.903048,104.226051 26.021753,109.897995 24.998644,115.424309 
	C24.183754,119.825928 27.977982,122.718384 32.381474,121.485840 
	C36.463493,120.343300 40.630360,118.673058 44.077316,116.260139 
	C51.995792,110.717079 51.781723,102.926819 43.332329,96.665672 
M94.838440,149.026138 
	C89.308403,142.791885 81.762947,142.209610 78.235199,148.661758 
	C75.755112,153.197784 75.051582,158.904373 74.529190,164.184662 
	C74.381149,165.681061 77.518608,168.781525 79.384224,168.984238 
	C89.253174,170.056595 97.966736,159.151306 94.838440,149.026138 
M130.631088,34.088139 
	C128.289734,31.339373 126.340179,28.060394 123.511971,25.970505 
	C119.614143,23.090235 114.309914,24.772186 111.877190,28.873026 
	C109.489677,32.897633 110.728073,38.371986 115.082977,40.470562 
	C117.995987,41.874310 121.379868,42.723217 124.613838,42.948822 
	C130.928604,43.389339 132.614899,40.957371 130.631088,34.088139 
M128.211792,142.780289 
	C130.311584,144.524292 132.157135,146.913589 134.569565,147.864044 
	C138.373871,149.362869 143.296432,150.933655 146.039780,146.821732 
	C148.848022,142.612534 145.107178,139.006775 142.436127,135.881439 
	C139.942383,132.963562 136.824509,130.958359 132.755905,132.648102 
	C128.599640,134.374268 127.236923,137.682129 128.211792,142.780289 
M50.893005,49.191742 
	C51.231552,46.098946 51.570099,43.006145 51.908646,39.913353 
	C49.161938,40.340717 46.104694,40.148918 43.738789,41.335537 
	C39.853642,43.284122 39.072899,47.145180 41.189838,50.099701 
	C43.379299,53.155437 46.749893,53.055603 50.893005,49.191742 
M167.353653,87.809288 
	C168.272278,85.540825 169.551437,83.335892 169.966782,80.978745 
	C170.195572,79.680359 168.598740,76.836235 168.459000,76.876724 
	C165.309433,77.789536 161.747208,78.408157 159.366898,80.401047 
	C158.043121,81.509369 157.745605,85.524498 158.702225,87.309624 
	C160.448715,90.568726 163.759964,90.549408 167.353653,87.809288 
z"/>
<path fill="#8C4D3A" opacity="1.000000" stroke="none" 
	d="
M106.730164,104.833466 
	C109.940269,98.178787 114.993721,94.029617 121.466255,91.695755 
	C127.955200,89.355995 134.855484,92.787689 136.756516,98.991142 
	C138.793411,105.638046 135.278870,113.061157 128.405029,114.014046 
	C122.695419,114.805534 116.604019,113.974213 110.853928,112.921394 
	C107.358887,112.281464 105.475792,109.171219 106.730164,104.833466 
z"/>
<path fill="#8C4D3A" opacity="1.000000" stroke="none" 
	d="
M76.652390,79.325577 
	C73.216431,75.732651 70.743820,72.058937 71.313194,67.159233 
	C71.857758,62.473053 75.980965,58.162224 80.589630,57.267841 
	C85.294945,56.354702 91.041374,58.547359 92.456291,63.318085 
	C94.052132,68.698845 94.827393,74.648636 94.372780,80.221497 
	C93.905624,85.948250 89.223915,87.713699 84.037186,84.896675 
	C81.458817,83.496307 79.271156,81.376534 76.652390,79.325577 
z"/>
<path fill="#8C4D3A" opacity="1.000000" stroke="none" 
	d="
M43.685791,96.850830 
	C51.781723,102.926819 51.995792,110.717079 44.077316,116.260139 
	C40.630360,118.673058 36.463493,120.343300 32.381474,121.485840 
	C27.977982,122.718384 24.183754,119.825928 24.998644,115.424309 
	C26.021753,109.897995 27.903048,104.226051 30.779108,99.436737 
	C33.419884,95.039230 38.513649,94.827530 43.685791,96.850830 
z"/>
<path fill="#8C4D3A" opacity="1.000000" stroke="none" 
	d="
M95.028809,149.376266 
	C97.966736,159.151306 89.253174,170.056595 79.384224,168.984238 
	C77.518608,168.781525 74.381149,165.681061 74.529190,164.184662 
	C75.051582,158.904373 75.755112,153.197784 78.235199,148.661758 
	C81.762947,142.209610 89.308403,142.791885 95.028809,149.376266 
z"/>
<path fill="#8C4D3A" opacity="1.000000" stroke="none" 
	d="
M130.787445,34.433071 
	C132.614899,40.957371 130.928604,43.389339 124.613838,42.948822 
	C121.379868,42.723217 117.995987,41.874310 115.082977,40.470562 
	C110.728073,38.371986 109.489677,32.897633 111.877190,28.873026 
	C114.309914,24.772186 119.614143,23.090235 123.511971,25.970505 
	C126.340179,28.060394 128.289734,31.339373 130.787445,34.433071 
z"/>
<path fill="#8D4E3B" opacity="1.000000" stroke="none" 
	d="
M128.109360,142.387085 
	C127.236923,137.682129 128.599640,134.374268 132.755905,132.648102 
	C136.824509,130.958359 139.942383,132.963562 142.436127,135.881439 
	C145.107178,139.006775 148.848022,142.612534 146.039780,146.821732 
	C143.296432,150.933655 138.373871,149.362869 134.569565,147.864044 
	C132.157135,146.913589 130.311584,144.524292 128.109360,142.387085 
z"/>
<path fill="#8E4F3C" opacity="1.000000" stroke="none" 
	d="
M50.694077,49.507912 
	C46.749893,53.055603 43.379299,53.155437 41.189838,50.099701 
	C39.072899,47.145180 39.853642,43.284122 43.738789,41.335537 
	C46.104694,40.148918 49.161938,40.340717 51.908646,39.913353 
	C51.570099,43.006145 51.231552,46.098946 50.694077,49.507912 
z"/>
<path fill="#8F503C" opacity="1.000000" stroke="none" 
	d="
M167.083633,88.079575 
	C163.759964,90.549408 160.448715,90.568726 158.702225,87.309624 
	C157.745605,85.524498 158.043121,81.509369 159.366898,80.401047 
	C161.747208,78.408157 165.309433,77.789536 168.459000,76.876724 
	C168.598740,76.836235 170.195572,79.680359 169.966782,80.978745 
	C169.551437,83.335892 168.272278,85.540825 167.083633,88.079575 
z"/>
</svg>